<?xml version="1.0" standalone="no"?>
<!DOCTYPE svg PUBLIC "-//W3C//DTD SVG 20010904//EN"
 "http://www.w3.org/TR/2001/REC-SVG-20010904/DTD/svg10.dtd">
<svg version="1.0" xmlns="http://www.w3.org/2000/svg"
 width="1024.000000pt" height="1024.000000pt" viewBox="0 0 1024.000000 1024.000000"
 preserveAspectRatio="xMidYMid meet">

<g transform="translate(0.000000,1024.000000) scale(0.100000,-0.100000)"
fill="#000000" stroke="none">
<path d="M4705 9155 c-756 -77 -1534 -406 -2135 -904 -334 -277 -676 -669
-875 -1006 -307 -519 -480 -1022 -554 -1606 -33 -256 -31 -662 4 -931 120
-919 582 -1803 1265 -2423 555 -505 1202 -837 1914 -984 288 -60 500 -81 813
-81 361 0 613 29 953 111 1055 253 1979 936 2537 1878 273 461 440 946 515
1501 30 220 32 694 5 920 -94 763 -411 1500 -898 2085 -102 122 -352 374 -474
476 -411 346 -879 611 -1375 781 -192 65 -508 137 -761 174 -161 23 -740 28
-934 9z m784 -470 c545 -55 1057 -230 1529 -524 646 -402 1156 -1007 1432
-1701 121 -304 202 -645 230 -965 13 -155 13 -468 0 -615 -66 -729 -372 -1423
-881 -1995 -486 -548 -1163 -946 -1879 -1106 -919 -206 -1857 -44 -2672 463
-403 250 -771 605 -1050 1013 -564 826 -743 1843 -493 2800 142 543 418 1055
793 1470 598 662 1431 1081 2317 1164 154 14 511 12 674 -4z"/>
<path d="M5056 8469 c-338 -44 -625 -164 -921 -385 -464 -347 -834 -915 -981
-1509 -61 -249 -77 -387 -78 -670 -1 -323 26 -513 107 -779 l34 -109 6 169
c11 320 68 558 201 846 66 144 217 377 335 518 289 345 502 537 876 787 728
489 1513 660 2213 484 120 -31 287 -87 397 -135 l60 -26 -50 46 c-198 180
-521 386 -797 508 -451 200 -1022 303 -1402 255z"/>
<path d="M6080 7724 c-550 -66 -1072 -285 -1506 -632 -137 -109 -140 -115 -42
-80 357 127 758 154 1152 78 492 -96 967 -404 1295 -844 367 -491 610 -1244
611 -1892 1 -680 -237 -1351 -646 -1830 -97 -112 -103 -120 -84 -109 193 112
524 383 685 561 527 582 819 1235 884 1981 52 590 -103 1303 -394 1809 -143
248 -247 374 -426 516 -288 229 -569 354 -954 424 -87 16 -489 28 -575 18z"/>
<path d="M7155 5540 c48 -452 -29 -900 -225 -1305 -316 -652 -850 -1091 -1640
-1350 -1037 -339 -2130 -130 -2864 548 l-100 92 44 -65 c506 -753 1182 -1247
1987 -1455 528 -137 1104 -128 1601 25 298 91 543 247 779 494 280 293 496
689 607 1116 70 267 91 463 83 779 -8 377 -62 648 -194 981 -79 200 -86 213
-78 140z"/>
</g>
</svg>
